<svg xmlns="http://www.w3.org/2000/svg" viewBox="0 0 500 350" fill="none">
  <rect width="500" height="350" rx="12" fill="#f5f7f5"/>
  <rect x="30" y="20" width="440" height="310" rx="10" fill="#e8efe8" stroke="#1a7a3f" stroke-width="1.5" stroke-dasharray="6,3"/>
  <rect x="80" y="60" width="340" height="100" rx="8" fill="#2c3e50" opacity="0.85"/>
  <rect x="100" y="78" width="80" height="30" rx="4" fill="#1a7a3f" opacity="0.7"/>
  <rect x="200" y="78" width="80" height="30" rx="4" fill="#ff7a00" opacity="0.7"/>
  <rect x="300" y="78" width="60" height="30" rx="4" fill="#3498db" opacity="0.7"/>
  <circle cx="130" cy="140" r="8" fill="#2ecc71" opacity="0.8"/>
  <circle cx="170" cy="140" r="8" fill="#e74c3c" opacity="0.7"/>
  <rect x="100" y="185" width="40" height="20" rx="3" fill="#95a5a6" opacity="0.5"/>
  <rect x="160" y="185" width="60" height="20" rx="3" fill="#95a5a6" opacity="0.5"/>
  <rect x="240" y="185" width="80" height="20" rx="3" fill="#95a5a6" opacity="0.5"/>
  <rect x="100" y="225" width="200" height="50" rx="6" fill="#34495e" opacity="0.3"/>
  <text x="200" y="255" font-family="Inter, sans-serif" font-size="14" fill="#fff" opacity="0.6" text-anchor="middle">000000</text>
  <text x="250" y="315" font-family="Inter, sans-serif" font-size="14" font-weight="600" fill="#666" text-anchor="middle">Painel de Controle IP55</text>
  <text x="250" y="333" font-family="Inter, sans-serif" font-size="11" fill="#999" text-anchor="middle">Foto ilustrativa</text>
</svg>
