<svg xmlns="http://www.w3.org/2000/svg" viewBox="0 0 1400 600" fill="none">
  <rect width="1400" height="600" fill="#e8f0e8"/>
  <rect x="0" y="420" width="1400" height="180" fill="#d0e0d0"/>
  <rect x="200" y="280" width="180" height="140" fill="#c0392b" rx="6"/>
  <polygon points="140,280 290,180 440,280" fill="#a93226"/>
  <rect x="550" y="200" width="120" height="220" rx="8" fill="#ff7a00" opacity="0.7"/>
  <rect x="570" y="220" width="80" height="80" rx="4" fill="#ff7a00" opacity="0.5"/>
  <rect x="570" y="310" width="80" height="80" rx="4" fill="#1a7a3f" opacity="0.5"/>
  <circle cx="610" cy="260" r="15" fill="#fff" opacity="0.3"/>
  <rect x="800" y="250" width="160" height="170" rx="8" fill="#1a7a3f" opacity="0.6"/>
  <rect x="830" y="270" width="100" height="60" rx="4" fill="#1a7a3f" opacity="0.4"/>
  <rect x="830" y="340" width="100" height="50" rx="4" fill="#1a7a3f" opacity="0.4"/>
  <rect x="1050" y="300" width="200" height="120" rx="6" fill="#95a5a6" opacity="0.5"/>
  <rect x="1080" y="320" width="60" height="40" rx="3" fill="#7f8c8d" opacity="0.6"/>
  <rect x="1150" y="320" width="70" height="70" rx="35" fill="#3498db" opacity="0.4"/>
  <line x1="100" y1="420" x2="1300" y2="420" stroke="#1a7a3f" stroke-width="2" stroke-dasharray="10,6"/>
  <text x="700" y="550" font-family="Inter, sans-serif" font-size="28" font-weight="700" fill="#666" text-anchor="middle">Foto do Equipamento em Campo</text>
  <text x="700" y="575" font-family="Inter, sans-serif" font-size="16" fill="#999" text-anchor="middle">Substituir por foto real do CTG Pluv em ambiente rural</text>
  <circle cx="700" cy="350" r="60" fill="#fff" opacity="0.15"/>
  <circle cx="700" cy="350" r="40" fill="#fff" opacity="0.2"/>
  <circle cx="700" cy="350" r="20" fill="#fff" opacity="0.4"/>
</svg>
